<svg width="25" height="24" viewBox="0 0 25 24" fill="none" xmlns="http://www.w3.org/2000/svg">
<path id="Vector" fill-rule="evenodd" clip-rule="evenodd" d="M12.5103 0C5.59245 0 0 5.49998 0 12.3042C0 17.7432 3.58327 22.3472 8.55422 23.9767C9.17572 24.0991 9.40337 23.7119 9.40337 23.3862C9.40337 23.1009 9.38288 22.1232 9.38288 21.1044C5.90281 21.8379 5.17812 19.6377 5.17812 19.6377C4.61885 18.2117 3.79018 17.8452 3.79018 17.8452C2.65116 17.0914 3.87315 17.0914 3.87315 17.0914C5.13663 17.1729 5.79961 18.3544 5.79961 18.3544C6.9179 20.2284 8.7199 19.6989 9.44486 19.3729C9.54831 18.5784 9.87993 18.0284 10.232 17.7229C7.45642 17.4377 4.53613 16.3784 4.53613 11.6522C4.53613 10.3077 5.03292 9.20771 5.8201 8.35222C5.6959 8.04672 5.26083 6.78347 5.94455 5.09273C5.94455 5.09273 7.00086 4.76673 9.38263 6.35572C10.4023 6.08639 11.454 5.94938 12.5103 5.94823C13.5667 5.94823 14.6435 6.09097 15.6378 6.35572C18.0198 4.76673 19.0761 5.09273 19.0761 5.09273C19.7599 6.78347 19.3245 8.04672 19.2003 8.35222C20.0083 9.20771 20.4846 10.3077 20.4846 11.6522C20.4846 16.3784 17.5643 17.4172 14.7679 17.7229C15.2237 18.1099 15.6171 18.8432 15.6171 20.0044C15.6171 21.6544 15.5966 22.9787 15.5966 23.3859C15.5966 23.7119 15.8245 24.0991 16.4457 23.9769C21.4167 22.3469 24.9999 17.7432 24.9999 12.3042C25.0204 5.49998 19.4075 0 12.5103 0Z" fill="#818992"/>
</svg>
